<svg width="50" height="50" viewBox="0 0 50 50" fill="none" xmlns="http://www.w3.org/2000/svg">
<path d="M22.0508 45.7227L21.8066 45.498L4.69727 29.6094C1.69922 26.8262 0 22.9199 0 18.8281V18.5059C0 11.6309 4.88281 5.73243 11.6406 4.44336C15.4883 3.70118 19.4238 4.58985 22.5586 6.79688C23.4375 7.42188 24.2578 8.14454 25 8.97461C25.4102 8.50586 25.8496 8.07618 26.3184 7.67579C26.6797 7.36329 27.0508 7.07032 27.4414 6.79688C30.5762 4.58985 34.5117 3.70118 38.3594 4.4336C45.1172 5.72266 50 11.6309 50 18.5059V18.8281C50 22.9199 48.3008 26.8262 45.3027 29.6094L28.1934 45.498L27.9492 45.7227C27.1484 46.4648 26.0937 46.8848 25 46.8848C23.9063 46.8848 22.8516 46.4746 22.0508 45.7227ZM23.3496 14.1602C23.3105 14.1309 23.2813 14.0918 23.252 14.0527L21.5137 12.0996L21.5039 12.0898C19.248 9.56055 15.8398 8.40821 12.5195 9.04297C7.96875 9.91211 4.6875 13.877 4.6875 18.5059V18.8281C4.6875 21.6113 5.84961 24.2773 7.89063 26.1719L25 42.0606L42.1094 26.1719C44.1504 24.2773 45.3125 21.6113 45.3125 18.8281V18.5059C45.3125 13.8867 42.0312 9.91211 37.4902 9.04297C34.1699 8.40821 30.752 9.57032 28.5059 12.0898C28.5059 12.0898 28.5059 12.0898 28.4961 12.0996C28.4863 12.1094 28.4961 12.0996 28.4863 12.1094L26.748 14.0625C26.7187 14.1016 26.6797 14.1309 26.6504 14.1699C26.2109 14.6094 25.6152 14.8535 25 14.8535C24.3848 14.8535 23.7891 14.6094 23.3496 14.1699V14.1602Z" fill="black"/>
</svg>
